<mxfile host="app.diagrams.net" modified="2022-12-13T02:19:29.850Z" agent="5.0 (Windows NT 10.0; Win64; x64) AppleWebKit/537.36 (KHTML, like Gecko) Chrome/101.0.0.0 Safari/537.36" etag="gXSaOLM5PLS_Bij0xfVE" version="20.6.2" type="github">
  <diagram id="6a731a19-8d31-9384-78a2-239565b7b9f0" name="Page-1">
    <mxGraphModel dx="768" dy="461" grid="1" gridSize="10" guides="1" tooltips="1" connect="1" arrows="1" fold="1" page="1" pageScale="1" pageWidth="1169" pageHeight="827" background="none" math="0" shadow="0">
      <root>
        <mxCell id="0" />
        <mxCell id="1" parent="0" />
        <mxCell id="hDvIdTp2yuTxAKMjwn-4-79" style="edgeStyle=orthogonalEdgeStyle;rounded=0;orthogonalLoop=1;jettySize=auto;html=1;entryX=0.5;entryY=0;entryDx=0;entryDy=0;entryPerimeter=0;" parent="1" source="hDvIdTp2yuTxAKMjwn-4-80" target="hDvIdTp2yuTxAKMjwn-4-83" edge="1">
          <mxGeometry relative="1" as="geometry" />
        </mxCell>
        <mxCell id="hDvIdTp2yuTxAKMjwn-4-80" value="开始" style="strokeWidth=2;html=1;shape=mxgraph.flowchart.start_1;whiteSpace=wrap;" parent="1" vertex="1">
          <mxGeometry x="330" y="320" width="100" height="60" as="geometry" />
        </mxCell>
        <mxCell id="hDvIdTp2yuTxAKMjwn-4-81" style="edgeStyle=orthogonalEdgeStyle;rounded=0;orthogonalLoop=1;jettySize=auto;html=1;entryX=0;entryY=0.5;entryDx=0;entryDy=0;" parent="1" source="hDvIdTp2yuTxAKMjwn-4-83" target="hDvIdTp2yuTxAKMjwn-4-85" edge="1">
          <mxGeometry relative="1" as="geometry" />
        </mxCell>
        <mxCell id="hDvIdTp2yuTxAKMjwn-4-82" style="edgeStyle=orthogonalEdgeStyle;rounded=0;orthogonalLoop=1;jettySize=auto;html=1;entryX=0.5;entryY=0;entryDx=0;entryDy=0;" parent="1" source="hDvIdTp2yuTxAKMjwn-4-83" target="hDvIdTp2yuTxAKMjwn-4-87" edge="1">
          <mxGeometry relative="1" as="geometry" />
        </mxCell>
        <mxCell id="hDvIdTp2yuTxAKMjwn-4-83" value="查询xxl任务是否已配置" style="strokeWidth=2;html=1;shape=mxgraph.flowchart.decision;whiteSpace=wrap;" parent="1" vertex="1">
          <mxGeometry x="330" y="430" width="100" height="100" as="geometry" />
        </mxCell>
        <mxCell id="hDvIdTp2yuTxAKMjwn-4-84" value="" style="edgeStyle=orthogonalEdgeStyle;rounded=0;orthogonalLoop=1;jettySize=auto;html=1;" parent="1" source="hDvIdTp2yuTxAKMjwn-4-85" target="hDvIdTp2yuTxAKMjwn-4-88" edge="1">
          <mxGeometry relative="1" as="geometry" />
        </mxCell>
        <mxCell id="hDvIdTp2yuTxAKMjwn-4-85" value="抛出错误" style="shape=parallelogram;html=1;strokeWidth=2;perimeter=parallelogramPerimeter;whiteSpace=wrap;rounded=1;arcSize=12;size=0.23;" parent="1" vertex="1">
          <mxGeometry x="530" y="450" width="100" height="60" as="geometry" />
        </mxCell>
        <mxCell id="hDvIdTp2yuTxAKMjwn-4-86" value="" style="edgeStyle=orthogonalEdgeStyle;rounded=0;orthogonalLoop=1;jettySize=auto;html=1;" parent="1" source="hDvIdTp2yuTxAKMjwn-4-87" target="hDvIdTp2yuTxAKMjwn-4-88" edge="1">
          <mxGeometry relative="1" as="geometry" />
        </mxCell>
        <mxCell id="hDvIdTp2yuTxAKMjwn-4-87" value="带上落标id&lt;br&gt;触发任务" style="shape=parallelogram;html=1;strokeWidth=2;perimeter=parallelogramPerimeter;whiteSpace=wrap;rounded=1;arcSize=12;size=0.23;" parent="1" vertex="1">
          <mxGeometry x="330" y="580" width="100" height="60" as="geometry" />
        </mxCell>
        <mxCell id="hDvIdTp2yuTxAKMjwn-4-88" value="返回给前端界面" style="strokeWidth=2;html=1;shape=mxgraph.flowchart.terminator;whiteSpace=wrap;" parent="1" vertex="1">
          <mxGeometry x="530" y="585" width="100" height="50" as="geometry" />
        </mxCell>
      </root>
    </mxGraphModel>
  </diagram>
</mxfile>
